<?xml version="1.0" standalone="no"?>
<!DOCTYPE svg PUBLIC "-//W3C//DTD SVG 20010904//EN"
 "http://www.w3.org/TR/2001/REC-SVG-20010904/DTD/svg10.dtd">
<svg version="1.0" xmlns="http://www.w3.org/2000/svg"
 width="252.000000pt" height="250.000000pt" viewBox="0 0 252.000000 250.000000"
 preserveAspectRatio="xMidYMid meet">

<g transform="translate(0.000000,250.000000) scale(0.100000,-0.100000)"
fill="#6366F1" stroke="none">
<path d="M180 2449 c0 -24 4 -27 66 -37 77 -13 107 -30 131 -75 17 -30 18 -90
18 -937 0 -836 -1 -911 -18 -989 -46 -212 -136 -310 -309 -335 -42 -6 -48 -10
-48 -32 0 -22 3 -24 55 -24 253 0 469 180 535 445 38 156 42 250 49 1060 6
759 7 791 25 822 22 37 66 57 144 68 48 6 52 9 52 33 l0 27 -350 0 -350 0 0
-26z"/>
<path d="M1090 2449 c0 -24 4 -27 67 -37 37 -6 79 -20 93 -30 57 -43 55 -6 55
-882 0 -780 -1 -806 -19 -837 -22 -37 -66 -57 -143 -68 -49 -6 -53 -9 -53 -33
l0 -27 380 0 380 0 0 26 c0 24 -3 26 -86 37 -190 25 -194 35 -191 432 l2 285
205 6 c232 7 278 16 410 81 208 101 320 307 307 562 -6 121 -27 189 -82 271
-81 118 -216 197 -380 224 -43 7 -238 12 -508 14 l-437 2 0 -26z m871 -59
c177 -56 259 -209 259 -486 0 -187 -43 -328 -126 -410 -86 -87 -177 -114 -382
-114 l-143 0 3 463 c3 421 5 465 21 498 30 61 88 81 218 74 47 -3 114 -14 150
-25z"/>
</g>
</svg>
